# xmcd CD database file
#
# Track frame offsets:
#	150
#	23027
#	39542
#	69847
#	92837
#	107485
#	122425
#	148115
#	167437
#	184107
#	194795
#	211472
#
# Disc length: 3261 seconds
#
# Revision: 0
# Processed by: cddbd v1.5PL3 Copyright (c) Steve Scherf et al.
# Submitted via: CDex 1.51
#
DISCID=a30cbb0c
DTITLE=Lee Konitz - Wild as springtime
DYEAR=1997
DGENRE=Jazz
TTITLE0=Ezz-Thetic
TTITLE1=Hairy canary
TTITLE2=She's as wild as springtime
TTITLE3=Duende
TTITLE4=It's you
TTITLE5=Prelude n°20
TTITLE6=Spinning waltz
TTITLE7=Silly samba
TTITLE8=Hi, Beck
TTITLE9=KO
TTITLE10=Hairy canary (Alt)
TTITLE11=Ezz-Thetic (Alt)
EXTD=YEAR: 1997
EXTT0=
EXTT1=
EXTT2=
EXTT3=
EXTT4=
EXTT5=
EXTT6=
EXTT7=
EXTT8=
EXTT9=
EXTT10=
EXTT11=
PLAYORDER=
